<svg width="800" height="400" viewBox="0 0 800 400" fill="none" xmlns="http://www.w3.org/2000/svg">
  <!-- Background Elements -->
  <circle cx="400" cy="200" r="180" fill="#4f46e5" fill-opacity="0.05"/>
  <circle cx="400" cy="200" r="120" fill="#4f46e5" fill-opacity="0.08"/>
  
  <!-- Poll Cards -->
  <g transform="translate(260, 100) rotate(-10)">
    <rect x="0" y="0" width="160" height="200" rx="12" fill="white" stroke="#4f46e5" stroke-width="2"/>
    <rect x="20" y="30" width="120" height="12" rx="6" fill="#4f46e5" fill-opacity="0.7"/>
    <rect x="20" y="60" width="100" height="8" rx="4" fill="#4f46e5" fill-opacity="0.5"/>
    <rect x="20" y="90" width="120" height="8" rx="4" fill="#4f46e5" fill-opacity="0.3"/>
    <rect x="20" y="120" width="80" height="8" rx="4" fill="#4f46e5" fill-opacity="0.2"/>
    <rect x="20" y="160" width="60" height="20" rx="10" fill="#4f46e5"/>
  </g>
  
  <g transform="translate(380, 80) rotate(5)">
    <rect x="0" y="0" width="160" height="200" rx="12" fill="white" stroke="#4f46e5" stroke-width="2"/>
    <rect x="20" y="30" width="120" height="12" rx="6" fill="#4f46e5" fill-opacity="0.7"/>
    
    <!-- Poll Options -->
    <rect x="20" y="60" width="120" height="24" rx="4" fill="#f5f5f5" stroke="#4f46e5" stroke-width="1"/>
    <rect x="20" y="60" width="80" height="24" rx="4" fill="#4f46e5" fill-opacity="0.3"/>
    
    <rect x="20" y="94" width="120" height="24" rx="4" fill="#f5f5f5" stroke="#4f46e5" stroke-width="1"/>
    <rect x="20" y="94" width="40" height="24" rx="4" fill="#4f46e5" fill-opacity="0.3"/>
    
    <rect x="20" y="128" width="120" height="24" rx="4" fill="#f5f5f5" stroke="#4f46e5" stroke-width="1"/>
    <rect x="20" y="128" width="100" height="24" rx="4" fill="#4f46e5" fill-opacity="0.3"/>
    
    <rect x="20" y="160" width="60" height="20" rx="10" fill="#4f46e5"/>
  </g>
  
  <!-- Decorative Elements -->
  <circle cx="220" cy="120" r="15" fill="#4f46e5" fill-opacity="0.2"/>
  <circle cx="580" cy="280" r="25" fill="#4f46e5" fill-opacity="0.2"/>
  <circle cx="200" cy="320" r="10" fill="#4f46e5" fill-opacity="0.3"/>
  <circle cx="600" cy="100" r="8" fill="#4f46e5" fill-opacity="0.3"/>
  
  <!-- QR Code Representation -->
  <g transform="translate(520, 180)">
    <rect x="0" y="0" width="80" height="80" rx="4" fill="white" stroke="#4f46e5" stroke-width="2"/>
    <rect x="10" y="10" width="60" height="60" fill="#4f46e5" fill-opacity="0.1"/>
    <rect x="20" y="20" width="10" height="10" fill="#4f46e5"/>
    <rect x="50" y="20" width="10" height="10" fill="#4f46e5"/>
    <rect x="20" y="50" width="10" height="10" fill="#4f46e5"/>
    <rect x="35" y="35" width="10" height="10" fill="#4f46e5"/>
    <rect x="50" y="50" width="10" height="10" fill="#4f46e5"/>
  </g>
</svg>